<?xml version="1.0" standalone="no"?>
<svg viewBox="0 0 200 200" xmlns="http://www.w3.org/2000/svg">
  <path fill="#F15B67" d="M42.4,-69.8C54.7,-66.3,64.3,-54.5,69.4,-41.5C74.5,-28.4,75.1,-14.2,70.5,-2.7C65.9,8.9,56.1,17.8,48.7,26.9C41.3,36,36.4,45.3,28.7,49.5C21,53.6,10.5,52.7,-2.2,56.6C-14.9,60.4,-29.9,69,-36.8,64.4C-43.7,59.7,-42.6,41.9,-51.4,28.9C-60.2,16,-78.9,8,-83.6,-2.7C-88.3,-13.4,-78.9,-26.8,-66.6,-33.6C-54.3,-40.5,-39,-40.8,-27.4,-44.7C-15.8,-48.6,-7.9,-56.1,3.6,-62.3C15,-68.5,30.1,-73.3,42.4,-69.8Z" transform="translate(100 100)" />
</svg>
